<?xml version="1.0" standalone="no"?>
<!DOCTYPE svg PUBLIC "-//W3C//DTD SVG 20010904//EN"
 "http://www.w3.org/TR/2001/REC-SVG-20010904/DTD/svg10.dtd">
<svg version="1.0" xmlns="http://www.w3.org/2000/svg"
 width="1024.000000pt" height="1024.000000pt" viewBox="0 0 1024.000000 1024.000000"
 preserveAspectRatio="xMidYMid meet">

<g transform="translate(0.000000,1024.000000) scale(0.100000,-0.100000)"
fill="#000000" stroke="none">
<path d="M2405 6300 c-11 -4 -58 -41 -105 -82 -47 -41 -143 -123 -215 -182
-71 -60 -138 -120 -147 -135 -16 -23 -18 -55 -18 -269 l0 -243 -57 47 c-66 53
-95 66 -127 58 -21 -5 -113 -85 -368 -318 l-68 -62 0 -380 c0 -284 3 -385 13
-404 10 -21 21 -26 62 -28 38 -3 52 1 62 14 10 14 13 102 13 385 l0 367 154
136 155 137 170 -136 171 -136 0 -368 c0 -344 1 -369 18 -384 16 -15 50 -17
270 -17 214 0 253 2 266 16 14 13 16 48 16 226 l0 210 144 146 143 145 94 -75
c52 -42 124 -104 162 -138 l67 -62 0 -215 c0 -128 4 -222 10 -234 8 -15 21
-19 60 -19 79 0 80 3 77 282 l-2 237 -30 31 c-16 18 -74 70 -127 117 l-98 85
0 338 c0 307 -2 340 -17 358 -23 25 -661 535 -690 550 -25 14 -30 14 -58 2z
m380 -432 l240 -193 3 -252 2 -253 -36 22 c-27 16 -42 19 -58 12 -12 -5 -108
-97 -214 -205 l-192 -197 0 -181 0 -181 -140 0 -140 0 0 330 c0 224 -4 337
-11 354 -7 14 -47 52 -90 86 l-79 61 2 287 3 287 179 152 180 151 55 -43 c31
-24 164 -131 296 -237z"/>
<path d="M2314 5647 c-2 -7 -3 -60 -2 -118 l3 -104 80 0 80 0 0 115 0 115 -78
3 c-58 2 -79 -1 -83 -11z"/>
<path d="M2634 5637 c-3 -8 -3 -56 -2 -108 l3 -94 80 0 80 0 3 94 c2 60 -1 98
-9 107 -16 19 -147 20 -155 1z"/>
<path d="M2330 5236 c-6 -6 -10 -51 -10 -102 0 -105 -1 -104 85 -104 86 0 85
-1 85 105 0 64 -4 96 -13 103 -16 14 -133 12 -147 -2z"/>
<path d="M4790 5500 l0 -350 50 0 50 0 0 350 0 350 -50 0 -50 0 0 -350z"/>
<path d="M6081 5831 c-12 -12 -21 -34 -21 -51 0 -32 30 -70 55 -70 29 0 64 24
76 52 10 25 9 33 -8 56 -26 35 -74 41 -102 13z"/>
<path d="M3890 5647 c-85 -24 -130 -73 -130 -143 0 -73 46 -112 167 -140 98
-22 102 -23 114 -46 25 -47 -22 -98 -93 -98 -40 0 -73 21 -93 59 -14 28 -16
28 -60 18 -49 -11 -54 -23 -29 -67 60 -101 243 -118 337 -31 32 30 40 45 44
84 7 56 -9 100 -45 123 -14 9 -68 27 -120 40 -104 26 -122 36 -122 69 0 36 31
55 87 55 45 0 54 -4 80 -33 27 -31 30 -32 68 -22 21 7 40 16 42 21 2 5 -6 23
-17 41 -37 62 -144 94 -230 70z"/>
<path d="M4398 5646 c-86 -23 -156 -88 -178 -167 -43 -148 41 -298 185 -330
189 -42 346 133 291 325 -38 130 -171 206 -298 172z m146 -116 c113 -100 32
-322 -109 -296 -72 14 -115 75 -115 167 0 100 53 159 142 159 38 0 54 -6 82
-30z"/>
<path d="M5724 5650 c-51 -7 -126 -51 -154 -89 -68 -96 -66 -234 5 -327 101
-132 322 -118 395 26 l19 38 -44 11 c-56 14 -65 14 -65 -2 0 -25 -54 -66 -95
-72 -78 -12 -141 43 -151 132 -13 104 22 173 97 193 35 10 47 8 84 -10 28 -14
49 -32 59 -54 16 -33 16 -33 61 -23 48 11 56 27 34 70 -41 80 -138 122 -245
107z"/>
<path d="M6460 5650 c-120 -23 -200 -122 -200 -246 0 -76 16 -126 58 -174 52
-61 103 -84 187 -84 109 -1 185 47 229 144 25 55 27 158 4 211 -46 106 -167
171 -278 149z m133 -120 c60 -52 71 -162 23 -233 -60 -90 -181 -83 -232 15
-18 35 -18 129 0 173 32 77 145 101 209 45z"/>
<path d="M7055 5649 c-22 -5 -57 -23 -77 -40 l-38 -30 0 36 0 36 -52 -3 -53
-3 0 -245 0 -245 53 -3 52 -3 0 156 c0 179 9 213 65 239 39 19 61 20 104 5 53
-19 61 -48 61 -234 l0 -165 55 0 55 0 0 185 c0 203 -5 229 -56 277 -23 21
-100 50 -124 47 -3 -1 -23 -5 -45 -10z"/>
<path d="M7553 5649 c-121 -23 -196 -119 -195 -249 1 -74 18 -124 64 -175 50
-57 101 -80 184 -79 87 0 150 32 188 97 l26 42 -46 13 c-44 13 -46 13 -65 -12
-74 -94 -216 -61 -243 57 l-6 27 181 0 182 0 -5 69 c-4 46 -13 82 -28 109 -45
80 -139 120 -237 101z m97 -94 c37 -19 60 -52 60 -87 l0 -28 -126 0 c-111 0
-125 2 -120 16 3 9 6 19 6 24 0 15 53 72 74 80 33 13 74 11 106 -5z"/>
<path d="M8035 5651 c-105 -26 -162 -104 -135 -186 16 -48 68 -81 159 -101 42
-9 86 -23 99 -30 32 -21 30 -67 -5 -94 -40 -31 -117 -24 -150 14 -13 15 -23
33 -23 40 0 10 -11 11 -50 3 -55 -11 -57 -14 -35 -57 57 -109 253 -132 345
-40 44 44 56 90 38 146 -16 48 -61 79 -136 94 -143 28 -182 60 -132 110 30 30
113 28 144 -3 13 -13 25 -29 27 -35 3 -10 12 -10 39 -1 19 6 41 13 48 15 10 3
10 10 -2 33 -23 44 -70 78 -126 90 -56 12 -62 12 -105 2z"/>
<path d="M4990 5468 c0 -232 15 -272 113 -313 64 -27 136 -13 192 37 l35 30 0
-36 0 -36 55 0 55 0 0 250 0 250 -55 0 -55 0 0 -156 c0 -174 -10 -213 -61
-239 -37 -20 -99 -19 -128 1 -42 30 -51 71 -51 239 l0 155 -50 0 -50 0 0 -182z"/>
<path d="M6077 5643 c-4 -3 -7 -116 -7 -250 l0 -243 55 0 55 0 0 250 0 250
-48 0 c-27 0 -52 -3 -55 -7z"/>
<path d="M5325 4975 c-30 -30 -31 -54 -4 -89 39 -50 119 -22 119 43 0 20 -9
36 -26 50 -35 27 -59 26 -89 -4z"/>
<path d="M6580 4645 l0 -345 55 0 55 0 0 345 0 345 -55 0 -55 0 0 -345z"/>
<path d="M1702 4818 c-14 -14 -17 -205 -3 -226 5 -9 29 -12 82 -10 l74 3 3
114 c2 85 -1 117 -10 123 -20 12 -133 9 -146 -4z"/>
<path d="M4382 4774 c-88 -44 -132 -120 -132 -229 0 -107 45 -186 133 -230
112 -55 251 -18 310 83 l17 30 -45 15 c-45 16 -45 16 -62 -9 -34 -53 -126 -71
-184 -37 -27 16 -69 84 -69 111 0 9 48 12 181 12 l182 0 -5 63 c-11 137 -93
217 -221 217 -37 0 -69 -8 -105 -26z m169 -80 c23 -12 35 -30 53 -86 5 -17 -5
-18 -124 -18 l-130 0 15 38 c34 82 105 107 186 66z"/>
<path d="M4915 4776 c-91 -43 -144 -126 -145 -227 0 -104 49 -191 133 -236 48
-26 179 -25 232 3 39 20 112 110 100 123 -4 3 -25 11 -48 16 -40 11 -43 10
-62 -19 -26 -38 -59 -56 -108 -56 -56 0 -96 25 -118 73 -23 52 -25 137 -2 184
44 94 180 96 228 3 18 -35 13 -33 69 -19 l44 11 -12 36 c-14 48 -75 108 -123
121 -63 18 -133 13 -188 -13z"/>
<path d="M5715 4783 c-16 -8 -40 -25 -52 -36 l-23 -20 0 31 0 32 -55 0 -55 0
0 -245 0 -245 54 0 55 0 3 171 3 171 33 29 c27 24 41 29 83 29 43 0 55 -5 80
-29 l29 -29 0 -171 0 -171 55 0 55 0 0 183 c0 170 -2 186 -22 227 -40 79 -163
116 -243 73z"/>
<path d="M6180 4784 c-19 -8 -43 -23 -53 -32 -23 -21 -61 -92 -53 -100 3 -3
26 -8 50 -12 43 -6 46 -5 57 22 15 37 37 48 94 48 38 0 52 -5 76 -29 16 -17
29 -40 29 -54 0 -24 -2 -24 -95 -29 -145 -8 -220 -54 -232 -145 -19 -140 177
-217 297 -116 l30 25 0 -31 c0 -31 1 -31 50 -31 l50 0 0 185 c0 198 -4 217
-52 262 -55 51 -174 69 -248 37z m200 -286 c0 -96 -123 -163 -194 -107 -39 31
-31 85 16 110 21 11 97 25 151 28 24 1 27 -2 27 -31z"/>
<path d="M6904 4777 c-153 -74 -189 -285 -71 -416 74 -82 231 -94 323 -25 40
29 79 93 61 99 -68 23 -78 21 -117 -17 -33 -34 -43 -38 -86 -38 -78 0 -144 55
-144 120 0 19 5 20 181 20 l182 0 -7 63 c-8 80 -41 144 -93 181 -60 41 -157
47 -229 13z m156 -77 c27 -14 50 -46 56 -78 l7 -32 -127 0 c-69 0 -126 2 -126
5 0 17 30 73 48 88 37 33 96 40 142 17z"/>
<path d="M7390 4778 c-97 -50 -118 -149 -47 -214 26 -25 53 -36 113 -49 112
-25 134 -38 134 -82 0 -60 -112 -85 -169 -37 -17 14 -31 33 -31 41 0 12 -8 13
-42 8 -60 -10 -66 -19 -43 -61 36 -67 111 -100 211 -91 109 8 174 67 174 158
0 81 -40 114 -172 143 -92 21 -124 42 -115 78 8 29 44 48 94 48 28 0 43 -8 68
-34 31 -33 34 -34 74 -24 45 12 48 16 26 58 -24 46 -78 73 -159 77 -60 4 -78
1 -116 -19z"/>
<path d="M3750 4785 c0 -4 141 -380 175 -467 6 -15 19 -18 70 -18 l63 0 13 38
c6 20 47 128 90 240 44 111 79 205 79 207 0 3 -24 5 -54 5 l-54 0 -62 -167
c-76 -206 -76 -206 -88 -173 -5 14 -35 96 -66 183 l-58 157 -54 0 c-30 0 -54
-2 -54 -5z"/>
<path d="M5320 4545 l0 -245 55 0 55 0 0 245 0 245 -55 0 -55 0 0 -245z"/>
<path d="M2906 4644 c-20 -20 -23 -203 -4 -222 7 -7 40 -12 80 -12 84 0 88 6
88 129 0 111 -7 121 -90 121 -40 0 -64 -5 -74 -16z"/>
</g>
</svg>
