<?xml version="1.0" encoding="UTF-8" standalone="no"?>
<svg
   width="79"
   height="22"
   viewBox="0 0 79 22"
   fill="none"
   version="1.1"
   id="svg56"
   xmlns="http://www.w3.org/2000/svg"
   xmlns:svg="http://www.w3.org/2000/svg">
  <defs
     id="defs60" />
  <path
     d="M 12.4956,0.0954971 C 12.3712,0.139078 11.8397,0.542202 11.3083,0.988907 10.7768,1.43561 9.69117,2.32902 8.87698,2.97184 8.07409,3.62556 7.31644,4.27927 7.21467,4.4427 7.03373,4.69329 7.01112,5.04194 7.01112,7.37352 V 10.0211 L 6.36655,9.50899 C 5.6202,8.93154 5.29226,8.78991 4.9304,8.87707 4.69293,8.93154 3.65257,9.80316 0.768961,12.3418 L 0,13.0173 v 4.1402 c 0,3.0942 0.0339248,4.1946 0.147007,4.4016 0.113083,0.2288 0.237474,0.2833 0.701112,0.3051 C 1.27783,21.8969 1.43615,21.8533 1.54923,21.7117 1.66231,21.5591 1.69624,20.6004 1.69624,17.517 v -3.9986 l 1.74147,-1.4817 1.75278,-1.4927 1.9224,1.4818 1.93371,1.4817 v 4.0095 c 0,3.748 0.01131,4.0203 0.20355,4.1838 0.18093,0.1634 0.56542,0.1852 3.05325,0.1852 2.4199,0 2.861,-0.0218 3.008,-0.1743 0.1583,-0.1417 0.1809,-0.523 0.1809,-2.4624 v -2.288 l 1.6284,-1.5907 1.6171,-1.5798 1.063,0.8172 c 0.588,0.4576 1.4022,1.1331 1.8319,1.5035 l 0.7576,0.6755 v 2.3425 c 0,1.3946 0.0453,2.4187 0.1131,2.5495 0.0905,0.1634 0.2375,0.207 0.6785,0.207 0.8934,0 0.9047,-0.0327 0.8708,-3.0725 L 24.03,16.2314 23.6908,15.8936 C 23.5099,15.6975 22.854,15.1309 22.2546,14.6189 l -1.1082,-0.9261 v -3.6826 c 0,-3.34487 -0.0226,-3.70441 -0.1922,-3.90053 C 20.6941,5.83729 13.4794,0.280716 13.1515,0.117287 12.8688,-0.0352459 12.8123,-0.0352459 12.4956,0.0954971 Z m 4.2972,4.7067429 2.7139,2.10279 0.034,2.7456 0.0226,2.75647 -0.4071,-0.2397 c -0.3053,-0.1743 -0.475,-0.207 -0.6559,-0.1307 -0.1357,0.0545 -1.2213,1.0568 -2.42,2.2335 l -2.1711,2.1464 v 1.972 1.9721 H 12.326 10.7428 v -3.5955 c 0,-2.4405 -0.0452,-3.6717 -0.1243,-3.8569 -0.0792,-0.1525 -0.5315,-0.5665 -1.01779,-0.937 L 8.70736,11.3067 8.72997,8.17977 8.7639,5.05284 10.7881,3.39676 12.8236,1.75158 13.4455,2.22007 c 0.3506,0.26149 1.8546,1.42728 3.3473,2.58217 z"
     fill="#3f72af"
     id="path2" />
  <path
     d="M 11.4666,7.21008 C 11.444,7.28635 11.4326,7.8638 11.444,8.49572 l 0.0339,1.13311 h 0.9046 0.9047 V 8.37588 7.12292 L 12.4052,7.09024 C 11.7493,7.06845 11.5118,7.10113 11.4666,7.21008 Z"
     fill="#000000"
     id="path4" />
  <path
     d="m 15.0852,7.31905 c -0.0339,0.08716 -0.0339,0.61013 -0.0226,1.17668 l 0.0339,1.02416 h 0.9047 0.9046 l 0.034,-1.02416 C 16.9624,7.84202 16.9284,7.428 16.838,7.32994 16.6571,7.12293 15.1757,7.11204 15.0852,7.31905 Z"
     fill="#000000"
     id="path6" />
  <path
     d="m 11.6475,11.688 c -0.0678,0.0654 -0.1131,0.5557 -0.1131,1.1114 0,1.144 -0.0113,1.1331 0.9612,1.1331 0.9725,0 0.9612,0.0109 0.9612,-1.144 0,-0.6973 -0.0452,-1.046 -0.147,-1.1223 -0.1809,-0.1525 -1.504,-0.1307 -1.6623,0.0218 z"
     fill="#000000"
     id="path8" />
  <path
     d="m 39.4658,8.8117 v 3.8133 h 0.5654 0.5654 V 8.8117 4.99836 h -0.5654 -0.5654 z"
     fill="#3f72af"
     id="path10" />
  <path
     d="m 54.0648,5.20536 c -0.1357,0.13075 -0.2375,0.37044 -0.2375,0.55566 0,0.34865 0.3392,0.76267 0.6219,0.76267 0.328,0 0.7238,-0.26149 0.8595,-0.56655 C 55.4217,5.68475 55.4104,5.59759 55.2182,5.347 54.9242,4.96567 54.3814,4.9003 54.0648,5.20536 Z"
     fill="#000000"
     id="path12" />
  <path
     d="m 29.2884,7.21009 c -0.9612,0.26149 -1.4701,0.79535 -1.4701,1.55802 0,0.79535 0.5202,1.22027 1.8885,1.52529 1.1082,0.2397 1.1534,0.2506 1.2891,0.5012 0.2827,0.5121 -0.2488,1.0678 -1.0516,1.0678 -0.4524,0 -0.8255,-0.2288 -1.0517,-0.6429 -0.1583,-0.305 -0.1809,-0.305 -0.6785,-0.1961 -0.5541,0.1199 -0.6106,0.2506 -0.3279,0.73 0.6785,1.1004 2.7479,1.2856 3.8108,0.3378 0.3619,-0.3269 0.4524,-0.4903 0.4976,-0.9152 0.0792,-0.6102 -0.1018,-1.0896 -0.5089,-1.34016 -0.1583,-0.09805 -0.7689,-0.29417 -1.357,-0.43581 -1.176,-0.28327 -1.3796,-0.39222 -1.3796,-0.75177 0,-0.39223 0.3506,-0.59924 0.9839,-0.59924 0.5088,0 0.6106,0.04359 0.9046,0.35955 0.3053,0.33775 0.3393,0.34865 0.769,0.23969 C 31.844,8.572 32.0589,8.47394 32.0815,8.41946 32.1041,8.36499 32.0137,8.16887 31.8893,7.97276 31.4709,7.29725 30.2609,6.9486 29.2884,7.21009 Z"
     fill="#3f72af"
     id="path14" />
  <path
     d="m 35.033,7.22098 c -0.9725,0.25059 -1.7641,0.95878 -2.0129,1.81951 -0.4862,1.61251 0.4636,3.24681 2.092,3.59541 2.1373,0.4576 3.9127,-1.449 3.2907,-3.54093 C 37.9731,7.67858 36.4691,6.85054 35.033,7.22098 Z m 1.651,1.26385 c 1.2778,1.08953 0.3618,3.50827 -1.2326,3.22497 -0.8142,-0.1525 -1.3005,-0.8171 -1.3005,-1.81948 0,-1.08953 0.5994,-1.73235 1.6058,-1.73235 0.4297,0 0.6107,0.06538 0.9273,0.32686 z"
     fill="#3f72af"
     id="path16" />
  <path
     d="m 50.0277,7.1774 c -0.5767,0.07627 -1.4248,0.55566 -1.7415,0.96968 -0.7689,1.04594 -0.7463,2.54952 0.0566,3.56272 1.1421,1.4382 3.6412,1.2857 4.4667,-0.2833 l 0.2149,-0.414 -0.4976,-0.1198 c -0.6332,-0.1526 -0.735,-0.1526 -0.735,0.0218 0,0.2724 -0.6106,0.7191 -1.0743,0.7844 -0.882,0.1308 -1.5944,-0.4685 -1.7075,-1.4381 -0.147,-1.13315 0.2488,-1.88492 1.0969,-2.10283 0.3958,-0.10895 0.5315,-0.08716 0.9499,0.10895 0.3166,0.15254 0.5541,0.34865 0.6672,0.58835 0.1809,0.35954 0.1809,0.35954 0.6898,0.25059 C 52.9566,8.98601 53.047,8.81169 52.7982,8.34319 52.3346,7.47157 51.2377,7.01397 50.0277,7.1774 Z"
     fill="#3f72af"
     id="path18" />
  <path
     d="m 58.3506,7.1774 c -1.357,0.25059 -2.2617,1.32922 -2.2617,2.68023 0,0.82807 0.181,1.37277 0.6559,1.89577 0.5881,0.6646 1.1648,0.9152 2.1147,0.9152 1.2326,0.0109 2.092,-0.5121 2.5896,-1.5689 0.2827,-0.5992 0.3053,-1.72146 0.0452,-2.29891 C 60.9741,7.6459 59.6058,6.93771 58.3506,7.1774 Z m 1.504,1.30743 c 0.6785,0.56655 0.8029,1.76507 0.2601,2.53857 -0.6785,0.9806 -2.0468,0.9043 -2.6235,-0.1634 -0.2036,-0.3813 -0.2036,-1.40549 0,-1.88488 0.3618,-0.83894 1.6397,-1.10042 2.3634,-0.49029 z"
     fill="#3f72af"
     id="path20" />
  <path
     d="M 65.079,7.1883 C 64.8302,7.24278 64.4344,7.43889 64.2083,7.62411 L 63.7786,7.95097 V 7.55874 7.16651 L 63.1905,7.1992 62.5912,7.23188 v 2.66934 2.66938 l 0.5993,0.0326 0.5881,0.0327 v -1.6996 c 0,-1.95028 0.1017,-2.32072 0.735,-2.60399 0.441,-0.20701 0.6898,-0.21791 1.176,-0.05448 0.5994,0.20701 0.6899,0.52297 0.6899,2.54947 v 1.7977 h 0.6219 0.622 v -2.0156 c 0,-2.21172 -0.0566,-2.495 -0.6333,-3.01797 C 66.73,7.36263 65.8593,7.04667 65.5879,7.07935 65.5539,7.09025 65.3278,7.13383 65.079,7.1883 Z"
     fill="#3f72af"
     id="path22" />
  <path
     d="m 70.7105,7.18829 c -1.3683,0.25059 -2.2164,1.29654 -2.2051,2.71292 0.0113,0.80629 0.2035,1.35099 0.7237,1.90669 0.5654,0.621 1.1422,0.8716 2.0807,0.8607 0.9839,0 1.6963,-0.3486 2.126,-1.0568 l 0.294,-0.4576 -0.5202,-0.1417 c -0.4975,-0.1416 -0.5202,-0.1416 -0.735,0.1308 -0.8368,1.0241 -2.4426,0.6646 -2.7479,-0.6211 l -0.0679,-0.2941 h 2.0468 2.0581 L 73.7072,9.47629 C 73.662,8.97511 73.5602,8.58288 73.3906,8.28871 72.8817,7.41709 71.8187,6.98128 70.7105,7.18829 Z m 1.0969,1.02415 c 0.4184,0.20701 0.6785,0.56656 0.6785,0.94789 V 9.4654 h -1.4248 c -1.2553,0 -1.4136,-0.02179 -1.357,-0.17433 0.0339,-0.09805 0.0678,-0.20701 0.0678,-0.26148 0,-0.16343 0.5994,-0.78446 0.8368,-0.87162 0.3732,-0.14164 0.8368,-0.11985 1.1987,0.05447 z"
     fill="#3f72af"
     id="path24" />
  <path
     d="m 76.1611,7.16652 c -1.1874,0.28327 -1.8319,1.1331 -1.5266,2.02651 0.1809,0.52297 0.7689,0.88247 1.798,1.10047 0.4749,0.098 0.9725,0.2505 1.1195,0.3268 0.3619,0.2288 0.3393,0.73 -0.0565,1.0242 -0.4524,0.3377 -1.3231,0.2614 -1.6963,-0.1526 -0.147,-0.1634 -0.2601,-0.3595 -0.2601,-0.4358 0,-0.1089 -0.1243,-0.1198 -0.5654,-0.0327 -0.6219,0.1199 -0.6445,0.1526 -0.3958,0.6211 0.6446,1.1875 2.861,1.4381 3.9014,0.4358 0.4976,-0.4794 0.6333,-0.9806 0.4297,-1.5907 C 78.7281,9.96659 78.2192,9.62884 77.3711,9.46541 75.754,9.16035 75.313,8.8117 75.8784,8.26694 c 0.3392,-0.32686 1.2778,-0.30507 1.6284,0.03268 0.147,0.14164 0.2827,0.31596 0.3053,0.38134 0.0339,0.10895 0.1357,0.10895 0.441,0.01089 C 78.468,8.62648 78.7168,8.55021 78.7959,8.52842 78.909,8.49574 78.909,8.41947 78.7733,8.16888 78.5132,7.68949 77.9817,7.31905 77.3485,7.18831 76.7152,7.05756 76.6474,7.05756 76.1611,7.16652 Z"
     fill="#3f72af"
     id="path26" />
  <path
     d="m 41.7275,9.16033 c 0,2.52767 0.1696,2.96347 1.2778,3.41017 0.7237,0.2942 1.5379,0.1417 2.1712,-0.4031 l 0.3958,-0.3268 v 0.3922 0.3922 h 0.6219 0.622 V 9.9012 7.17739 h -0.622 -0.6219 v 1.69966 c 0,1.89575 -0.1131,2.32065 -0.6898,2.60395 -0.4184,0.2179 -1.1196,0.207 -1.4475,-0.0109 -0.4749,-0.3268 -0.5767,-0.7735 -0.5767,-2.60394 V 7.17739 h -0.5654 -0.5654 z"
     fill="#3f72af"
     id="path28" />
  <path
     d="M 54.0195,7.25368 C 53.9743,7.28637 53.9404,8.51753 53.9404,9.97749 V 12.625 h 0.6219 0.622 V 9.90123 7.17741 h -0.5428 c -0.3053,0 -0.588,0.03269 -0.622,0.07627 z"
     fill="#3f72af"
     id="path30" />
  <path
     d="m 45.5157,14.5317 c -0.3392,0.3268 -0.3505,0.5883 -0.0452,0.9697 0.441,0.5447 1.3457,0.2397 1.3457,-0.4685 0,-0.2179 -0.1018,-0.3923 -0.294,-0.5448 -0.3958,-0.2942 -0.6672,-0.2833 -1.0065,0.0436 z"
     fill="#000000"
     id="path32" />
  <path
     d="m 59.7076,18.1271 v 3.7589 h 0.6219 0.622 v -3.7589 -3.7588 h -0.622 -0.6219 z"
     fill="#3f72af"
     id="path34" />
  <path
     d="m 4.54593,16.2423 c -0.15832,0.1525 -0.19224,2.2335 -0.03393,2.4623 0.05654,0.098 0.32794,0.1307 0.92728,0.1089 l 0.83681,-0.0326 0.03392,-1.2421 c 0.02262,-0.9261 -0.0113,-1.2747 -0.11308,-1.3401 -0.22616,-0.1308 -1.504,-0.0981 -1.651,0.0436 z"
     fill="#000000"
     id="path36" />
  <path
     d="m 34.852,16.7216 c -0.9951,0.4794 -1.4927,1.3075 -1.4927,2.4951 0,1.1657 0.5089,2.0265 1.504,2.5059 1.2666,0.5992 2.8384,0.1961 3.5056,-0.9043 l 0.1922,-0.3269 -0.5088,-0.1634 c -0.5089,-0.1744 -0.5089,-0.1744 -0.7011,0.098 -0.3845,0.5775 -1.4249,0.7736 -2.0808,0.4031 -0.3053,-0.1743 -0.7802,-0.9152 -0.7802,-1.2093 0,-0.0981 0.5428,-0.1308 2.0468,-0.1308 h 2.0581 l -0.0566,-0.6864 c -0.1244,-1.4926 -1.0516,-2.3642 -2.4991,-2.3642 -0.4184,0 -0.7803,0.0871 -1.1874,0.2832 z m 1.9111,0.8717 c 0.2601,0.1307 0.3958,0.3268 0.5994,0.937 0.0565,0.1852 -0.0566,0.1961 -1.4023,0.1961 h -1.47 l 0.1696,-0.4141 c 0.3845,-0.8934 1.1874,-1.1657 2.1033,-0.719 z"
     fill="#3f72af"
     id="path38" />
  <path
     d="m 40.8793,16.6998 c -1.029,0.4685 -1.6283,1.3728 -1.6397,2.4733 0,1.1331 0.5542,2.081 1.504,2.5712 0.5428,0.2833 2.0242,0.2724 2.6236,-0.0326 0.441,-0.2179 1.2665,-1.1985 1.1308,-1.3402 -0.0452,-0.0326 -0.2827,-0.1198 -0.5428,-0.1743 -0.4523,-0.1198 -0.4863,-0.1089 -0.7011,0.207 -0.294,0.414 -0.6672,0.6102 -1.2213,0.6102 -0.6333,0 -1.0856,-0.2724 -1.3344,-0.7954 -0.2601,-0.5665 -0.2827,-1.4926 -0.0226,-2.0047 0.4976,-1.0242 2.0355,-1.046 2.5783,-0.0327 0.2035,0.3813 0.147,0.3595 0.7802,0.207 l 0.4976,-0.1198 -0.1357,-0.3923 c -0.1583,-0.5229 -0.8481,-1.1767 -1.3909,-1.3183 -0.7124,-0.1961 -1.504,-0.1416 -2.126,0.1416 z"
     fill="#3f72af"
     id="path40" />
  <path
     d="m 49.9259,16.6236 c -0.1809,0.0871 -0.4523,0.2724 -0.588,0.3922 l -0.2601,0.2179 V 16.896 16.5473 h -0.6219 -0.622 v 2.6694 2.6693 h 0.6107 0.6219 l 0.0339,-1.8631 0.034,-1.8631 0.3731,-0.3159 c 0.3054,-0.2615 0.4637,-0.316 0.9386,-0.316 0.4863,0 0.622,0.0545 0.9047,0.316 l 0.3279,0.3159 v 1.8631 1.8631 h 0.622 0.6219 v -1.9938 c 0,-1.8522 -0.0226,-2.0266 -0.2488,-2.4733 -0.4523,-0.8607 -1.8432,-1.2638 -2.7479,-0.7953 z"
     fill="#3f72af"
     id="path42" />
  <path
     d="m 55.1843,16.6127 c -0.2149,0.0871 -0.4863,0.2506 -0.5994,0.3486 -0.26,0.2288 -0.6898,1.0024 -0.5993,1.0896 0.0339,0.0326 0.294,0.0871 0.5654,0.1307 0.4863,0.0654 0.5202,0.0545 0.6446,-0.2397 0.1696,-0.4031 0.4184,-0.523 1.063,-0.523 0.4297,0 0.588,0.0545 0.8594,0.316 0.1809,0.1852 0.3279,0.4358 0.3279,0.5883 0,0.2615 -0.0226,0.2615 -1.0743,0.316 -1.6396,0.0872 -2.4878,0.5883 -2.6235,1.5798 -0.2148,1.5253 2.0016,2.3643 3.3586,1.2639 l 0.3392,-0.2724 v 0.3377 c 0,0.3378 0.0113,0.3378 0.5654,0.3378 h 0.5655 v -2.0156 c 0,-2.1573 -0.0453,-2.3643 -0.5881,-2.8546 -0.6219,-0.5556 -1.9676,-0.7518 -2.8044,-0.4031 z m 2.2616,3.116 c 0,1.046 -1.3909,1.776 -2.1938,1.1658 -0.441,-0.3377 -0.3505,-0.9261 0.181,-1.1985 0.2374,-0.1198 1.0969,-0.2723 1.7075,-0.305 0.2714,-0.0109 0.3053,0.0218 0.3053,0.3377 z"
     fill="#3f72af"
     id="path44" />
  <path
     d="m 63.3715,16.689 c -1.7302,0.8062 -2.1373,3.1051 -0.8029,4.5324 0.8368,0.8934 2.6122,1.0241 3.6525,0.2724 0.4524,-0.316 0.8934,-1.0133 0.6898,-1.0787 -0.7689,-0.2506 -0.882,-0.2288 -1.323,0.1852 -0.3732,0.3705 -0.4863,0.4141 -0.9725,0.4141 -0.8821,0 -1.6284,-0.5993 -1.6284,-1.3075 0,-0.207 0.0565,-0.2179 2.0468,-0.2179 h 2.0581 L 67.0127,18.8026 C 66.9222,17.931 66.5491,17.2337 65.961,16.8306 65.2825,16.3839 64.1856,16.3185 63.3715,16.689 Z m 1.764,0.8389 c 0.3054,0.1525 0.5655,0.5012 0.6333,0.8498 l 0.0792,0.3487 h -1.4362 c -0.7803,0 -1.4248,-0.0218 -1.4248,-0.0545 0,-0.1852 0.3392,-0.7954 0.5428,-0.9588 0.4184,-0.3595 1.0856,-0.4358 1.6057,-0.1852 z"
     fill="#3f72af"
     id="path46" />
  <path
     d="m 68.8673,16.6781 c -1.0969,0.5447 -1.3344,1.6234 -0.5315,2.3315 0.294,0.2724 0.5993,0.3923 1.2778,0.5339 1.2666,0.2724 1.5153,0.414 1.5153,0.8934 0,0.6537 -1.2665,0.9261 -1.9111,0.4031 -0.1922,-0.1525 -0.3505,-0.3595 -0.3505,-0.4467 0,-0.1307 -0.0905,-0.1416 -0.475,-0.0871 -0.6785,0.1089 -0.7463,0.207 -0.4862,0.6646 0.4071,0.73 1.2552,1.0895 2.386,0.9915 1.2326,-0.0872 1.9677,-0.73 1.9677,-1.7215 0,-0.8825 -0.4524,-1.2421 -1.9451,-1.558 -1.0403,-0.2288 -1.4022,-0.4576 -1.3004,-0.8498 0.0905,-0.316 0.4976,-0.523 1.063,-0.523 0.3166,0 0.4862,0.0871 0.7689,0.3704 0.3506,0.3596 0.3845,0.3705 0.8368,0.2615 0.5089,-0.1307 0.5428,-0.1743 0.2941,-0.6319 -0.2714,-0.5012 -0.8821,-0.7954 -1.7981,-0.839 -0.6785,-0.0435 -0.882,-0.0108 -1.3117,0.2071 z"
     fill="#3f72af"
     id="path48" />
  <path
     d="m 27.7052,16.6018 c 0,0.0436 1.5945,4.1402 1.979,5.0881 0.0678,0.1634 0.2148,0.1961 0.7915,0.1961 h 0.7125 l 0.147,-0.414 c 0.0678,-0.2179 0.5315,-1.3946 1.0177,-2.6149 0.4976,-1.2094 0.8934,-2.2335 0.8934,-2.2553 0,-0.0327 -0.2714,-0.0545 -0.6107,-0.0545 H 32.025 l -0.7011,1.8195 c -0.8595,2.2444 -0.8595,2.2444 -0.9952,1.8849 -0.0565,-0.1525 -0.3958,-1.0459 -0.7463,-1.9938 l -0.6559,-1.7106 h -0.6106 c -0.3393,0 -0.6107,0.0218 -0.6107,0.0545 z"
     fill="#3f72af"
     id="path50" />
  <path
     d="m 45.4592,19.2167 v 2.6693 h 0.6219 0.622 v -2.6693 -2.6694 h -0.622 -0.6219 z"
     fill="#3f72af"
     id="path52" />
  <path
     d="m 18.1611,18.138 c -0.2262,0.2179 -0.2601,2.2118 -0.0453,2.4188 0.0792,0.0762 0.4523,0.1307 0.9047,0.1307 0.9499,0 0.9951,-0.0654 0.9951,-1.4055 0,-1.2094 -0.0792,-1.3183 -1.0177,-1.3183 -0.4524,0 -0.7238,0.0545 -0.8368,0.1743 z"
     fill="#000000"
     id="path54" />
</svg>
