<svg width="578" height="128" viewBox="0 0 578 128" fill="none" xmlns="http://www.w3.org/2000/svg">
<path d="M91.9607 0.554574C91.0534 0.807699 87.1768 3.14911 83.3002 5.74364C79.4236 8.33817 71.5054 13.5272 65.5667 17.2608C59.7105 21.0577 54.1843 24.8546 53.442 25.8038C52.1223 27.2593 51.9573 29.2843 51.9573 42.8264V58.2038L47.2559 55.2296C41.8121 51.8757 39.4202 51.053 36.7808 51.5593C35.0487 51.8757 27.4604 56.9382 6.42768 71.6827L0.818954 75.6061V99.653C0.818954 117.625 1.0664 124.016 1.89121 125.219C2.71602 126.548 3.62332 126.864 7.00505 126.991C10.1393 127.18 11.2941 126.927 12.1189 126.105C12.9437 125.219 13.1911 119.65 13.1911 101.741V78.5171L25.8932 69.9108L38.6778 61.2413L52.6996 69.8475L66.8039 78.4538V101.741C66.8039 123.51 66.8864 125.092 68.2886 126.041C69.6083 126.991 72.4126 127.117 90.5585 127.117C108.209 127.117 111.426 126.991 112.499 126.105C113.653 125.282 113.818 123.067 113.818 111.803V98.5139L125.696 89.2749L137.49 80.0991L145.244 84.8452C149.533 87.503 155.471 91.4264 158.606 93.578L164.132 97.5014V111.107C164.132 119.207 164.462 125.155 164.957 125.915C165.616 126.864 166.689 127.117 169.905 127.117C176.421 127.117 176.504 126.927 176.256 109.272L176.092 94.2741L173.617 92.3124C172.297 91.1733 167.513 87.8827 163.142 84.9085L155.059 79.5296V58.1405C155.059 38.7132 154.894 36.6249 153.657 35.4858C151.76 33.9038 99.1366 1.63036 96.7446 0.681137C94.6826 -0.204801 94.2702 -0.204801 91.9607 0.554574ZM123.304 27.8921L143.099 40.1054L143.346 56.0522L143.511 72.0624L140.542 70.6702C138.315 69.6577 137.078 69.4679 135.758 69.9108C134.768 70.2272 126.85 76.0491 118.107 82.8835L102.271 95.3499V106.804V118.258H90.7235H79.1761V97.3749C79.1761 83.1999 78.8462 76.0491 78.2688 74.9733C77.6914 74.0874 74.3922 71.6827 70.8455 69.5311L64.3295 65.671L64.4945 47.5093L64.7419 29.3475L79.506 19.7288L94.3526 10.1733L98.8891 12.8944C101.446 14.4132 112.416 21.1843 123.304 27.8921Z" fill="black"/>
<path d="M84.4549 41.8772C84.2899 42.3202 84.2075 45.6741 84.2899 49.3444L84.5374 55.9257H91.1359H97.7344V48.6483V41.371L91.3008 41.1811C86.5169 41.0546 84.7848 41.2444 84.4549 41.8772Z" fill="black"/>
<path d="M110.849 42.51C110.601 43.0163 110.601 46.0538 110.684 49.3444L110.931 55.2928H117.53H124.128L124.376 49.3444C124.541 45.5475 124.293 43.1428 123.633 42.5733C122.314 41.371 111.509 41.3077 110.849 42.51Z" fill="black"/>
<path d="M85.7746 67.8859C85.2797 68.2655 84.9498 71.1132 84.9498 74.3405C84.9498 80.9851 84.8673 80.9218 91.9607 80.9218C99.0541 80.9218 98.9716 80.9851 98.9716 74.2773C98.9716 70.2273 98.6417 68.2023 97.8993 67.7593C96.5796 66.8734 86.9293 66.9999 85.7746 67.8859Z" fill="black"/>
<path d="M288.678 51.1796V73.328H292.802H296.926V51.1796V29.0311H292.802H288.678V51.1796Z" fill="black"/>
<path d="M395.162 30.2335C394.172 30.9928 393.429 32.385 393.429 33.4608C393.429 35.4858 395.904 37.8905 397.966 37.8905C400.358 37.8905 403.245 36.3718 404.234 34.5999C405.059 33.0178 404.977 32.5116 403.575 31.0561C401.43 28.8413 397.471 28.4616 395.162 30.2335Z" fill="black"/>
<path d="M214.445 41.8772C207.434 43.396 203.723 46.4968 203.723 50.9265C203.723 55.546 207.517 58.014 217.497 59.7858C225.58 61.178 225.91 61.2413 226.9 62.6968C228.962 65.671 225.085 68.8983 219.229 68.8983C215.93 68.8983 213.208 67.5694 211.558 65.1647C210.404 63.3929 210.239 63.3929 206.61 64.0257C202.568 64.7218 202.156 65.4811 204.218 68.2655C209.166 74.6569 224.261 75.7327 232.014 70.2272C234.653 68.3288 235.313 67.3796 235.643 64.9116C236.22 61.3679 234.901 58.5835 231.931 57.128C230.777 56.5585 226.323 55.4194 222.034 54.5968C213.455 52.9515 211.971 52.3186 211.971 50.2304C211.971 47.9522 214.528 46.7499 219.147 46.7499C222.858 46.7499 223.601 47.003 225.745 48.8382C227.972 50.7999 228.22 50.8632 231.354 50.2304C233.086 49.7874 234.653 49.2179 234.818 48.9015C234.983 48.5851 234.323 47.446 233.416 46.3069C230.364 42.3835 221.539 40.3585 214.445 41.8772Z" fill="black"/>
<path d="M256.346 41.9405C249.252 43.396 243.479 47.5093 241.664 52.5085C238.117 61.8741 245.046 71.3663 256.923 73.3913C272.512 76.0491 285.462 64.9749 280.925 52.8249C277.791 44.5983 266.821 39.789 256.346 41.9405ZM268.388 49.2811C277.708 55.6093 271.027 69.6577 259.398 68.0124C253.459 67.1265 249.912 63.2663 249.912 57.4444C249.912 51.1163 254.284 47.3827 261.625 47.3827C264.759 47.3827 266.078 47.7624 268.388 49.2811Z" fill="black"/>
<path d="M365.716 41.6874C361.509 42.1304 355.323 44.9147 353.014 47.3194C347.405 53.3944 347.57 62.1272 353.426 68.0124C361.757 76.3655 379.985 75.4796 386.006 66.3671L387.573 63.9624L383.944 63.2663C379.325 62.3804 378.583 62.3804 378.583 63.3929C378.583 64.9749 374.129 67.5694 370.747 67.9491C364.314 68.7085 359.117 65.228 358.293 59.596C357.22 53.0147 360.107 48.6483 366.293 47.3827C369.18 46.7499 370.17 46.8764 373.222 48.0155C375.531 48.9014 377.263 50.0405 378.088 51.4327C379.408 53.521 379.408 53.521 383.119 52.8882C387.078 52.1921 387.738 51.1796 385.924 48.4585C382.542 43.396 374.541 40.7382 365.716 41.6874Z" fill="black"/>
<path d="M426.422 41.6874C416.524 43.1428 409.926 49.4077 409.926 57.2546C409.926 62.0639 411.245 65.228 414.71 68.2655C418.999 72.1257 423.205 73.5811 430.134 73.5811C439.124 73.6444 445.393 70.6069 449.022 64.4686C451.084 60.9882 451.249 54.4702 449.352 51.1163C445.558 44.4085 435.577 40.2952 426.422 41.6874ZM437.392 49.2811C442.341 52.5717 443.248 59.5327 439.289 64.0257C434.34 69.721 424.36 69.278 420.153 63.0764C418.669 60.8616 418.669 54.9132 420.153 52.1288C422.793 47.2561 432.113 45.7374 437.392 49.2811Z" fill="black"/>
<path d="M475.498 41.7507C473.684 42.0671 470.797 43.2061 469.147 44.2819L466.013 46.1804V43.9022V41.6241L461.724 41.814L457.352 42.0038V57.5077V73.0116L461.724 73.2015L466.013 73.3913V63.5194C466.013 52.1921 466.755 50.0405 471.374 48.3952C474.591 47.1929 476.406 47.1296 479.952 48.0788C484.324 49.2811 484.984 51.1163 484.984 62.8866V73.328H489.52H494.057V61.621C494.057 48.7749 493.644 47.1296 489.438 44.0921C487.541 42.7632 481.189 40.928 479.21 41.1179C478.962 41.1811 477.313 41.4343 475.498 41.7507Z" fill="black"/>
<path d="M516.574 41.7507C506.594 43.2062 500.408 49.2812 500.49 57.5077C500.573 62.1905 501.975 65.3546 505.769 68.5819C509.893 72.189 514.1 73.6444 520.945 73.5812C528.121 73.5812 533.318 71.5562 536.452 67.4429L538.596 64.7851L534.802 63.9624C531.173 63.1398 531.008 63.1398 529.441 64.7218C523.337 70.6702 511.625 68.5819 509.398 61.1148L508.903 59.4062H523.832H538.844L538.431 55.0398C538.102 52.1288 537.359 49.8507 536.122 48.1421C532.41 43.0796 524.657 40.5483 516.574 41.7507ZM524.575 47.6991C527.626 48.9015 529.524 50.9898 529.524 53.2046V54.9765H519.131C509.975 54.9765 508.821 54.8499 509.233 53.964C509.481 53.3944 509.728 52.7616 509.728 52.4452C509.728 51.496 514.1 47.889 515.832 47.3827C518.554 46.5601 521.935 46.6866 524.575 47.6991Z" fill="black"/>
<path d="M556.33 41.6241C547.669 43.2694 542.968 48.2054 545.195 53.3944C546.515 56.4319 550.804 58.5202 558.309 59.7858C561.774 60.3554 565.403 61.2413 566.475 61.6843C569.115 63.0132 568.95 65.9241 566.063 67.6327C562.763 69.5944 556.412 69.1514 553.691 66.7468C552.618 65.7975 551.793 64.6585 551.793 64.2155C551.793 63.5827 550.886 63.5194 547.669 64.0257C543.133 64.7218 542.968 64.9116 544.783 67.6327C549.484 74.5304 565.65 75.9858 573.239 70.1639C576.868 67.3796 577.858 64.4686 576.373 60.9249C575.053 57.8874 571.342 55.9257 565.155 54.9764C553.361 53.2046 550.144 51.1796 554.268 48.0155C556.742 46.1171 563.588 46.2436 566.145 48.2054C567.217 49.028 568.207 50.0405 568.372 50.4202C568.62 51.053 569.362 51.053 571.589 50.4835C573.156 50.1038 574.971 49.6608 575.548 49.5343C576.373 49.3444 576.373 48.9014 575.383 47.446C573.486 44.6616 569.609 42.51 564.99 41.7507C560.372 40.9913 559.877 40.9913 556.33 41.6241Z" fill="black"/>
<path d="M305.175 53.2046C305.175 67.8858 306.412 70.4171 314.495 73.0116C319.774 74.7202 325.712 73.8343 330.331 70.6702L333.218 68.7718V71.0499V73.328H337.755H342.291V57.5077V41.6874H337.755H333.218V51.5593C333.218 62.5702 332.393 65.0382 328.187 66.6835C325.135 67.9491 320.021 67.8858 317.629 66.6202C314.165 64.7218 313.423 62.1272 313.423 51.496V41.6874H309.299H305.175V53.2046Z" fill="black"/>
<path d="M394.832 42.1303C394.502 42.3202 394.254 49.471 394.254 57.9507V73.328H398.791H403.327V57.5077V41.6874H399.368C397.141 41.6874 395.079 41.8772 394.832 42.1303Z" fill="black"/>
<path d="M332.806 84.4022C330.331 86.3007 330.249 87.8194 332.476 90.0342C335.693 93.1983 342.291 91.4264 342.291 87.3132C342.291 86.0475 341.549 85.035 340.147 84.1491C337.26 82.4405 335.28 82.5038 332.806 84.4022Z" fill="black"/>
<path d="M436.32 105.285V127.117H440.856H445.393V105.285V83.453H440.856H436.32V105.285Z" fill="black"/>
<path d="M33.9764 94.3374C32.8217 95.2234 32.5742 107.31 33.7289 108.639C34.1413 109.209 36.1209 109.398 40.4924 109.272L46.596 109.082L46.8435 101.868C47.0084 96.489 46.761 94.464 46.0186 94.0843C44.369 93.3249 35.0486 93.5148 33.9764 94.3374Z" fill="black"/>
<path d="M255.026 97.1218C247.768 99.9062 244.139 104.716 244.139 111.613C244.139 118.384 247.85 123.384 255.109 126.168C264.346 129.648 275.811 127.307 280.678 120.916L282.08 119.017L278.368 118.068C274.657 117.055 274.657 117.055 273.254 118.637C270.45 121.991 262.862 123.13 258.078 120.979C255.851 119.966 252.387 115.663 252.387 113.955C252.387 113.385 256.346 113.195 267.316 113.195H282.327L281.915 109.209C281.008 100.539 274.244 95.4765 263.687 95.4765C260.635 95.4765 257.995 95.9827 255.026 97.1218ZM268.965 102.184C270.862 102.944 271.852 104.083 273.337 107.626C273.749 108.702 272.924 108.766 263.109 108.766H252.387L253.624 106.361C256.428 101.172 262.284 99.5898 268.965 102.184Z" fill="black"/>
<path d="M298.988 96.9952C291.483 99.7163 287.111 104.969 287.029 111.36C287.029 117.941 291.07 123.447 297.999 126.294C301.958 127.94 312.763 127.876 317.134 126.105C320.351 124.839 326.372 119.144 325.382 118.321C325.053 118.131 323.32 117.625 321.423 117.308C318.124 116.612 317.877 116.676 316.31 118.511C314.165 120.915 311.443 122.055 307.402 122.055C302.783 122.055 299.483 120.473 297.669 117.435C295.772 114.144 295.607 108.765 297.504 105.791C301.133 99.8428 312.35 99.7163 316.31 105.601C317.794 107.816 317.382 107.69 322.001 106.804L325.63 106.108L324.64 103.83C323.485 100.792 318.454 96.9952 314.495 96.1725C309.299 95.0334 303.525 95.3499 298.988 96.9952Z" fill="black"/>
<path d="M364.973 96.5522C363.654 97.0585 361.674 98.1343 360.684 98.8303L358.787 100.096V98.1343V96.1093H354.251H349.714V111.613V127.117H354.168H358.705L358.952 116.296L359.2 105.475L361.922 103.64C364.149 102.121 365.303 101.805 368.768 101.805C372.314 101.805 373.304 102.121 375.366 103.64L377.758 105.475V116.296V127.117H382.295H386.831V115.537C386.831 104.779 386.666 103.766 385.016 101.172C381.717 96.1725 371.572 93.8311 364.973 96.5522Z" fill="black"/>
<path d="M403.327 96.4888C401.76 96.9951 399.781 97.9443 398.956 98.5138C397.059 99.8427 393.924 104.336 394.584 104.842C394.832 105.032 396.729 105.348 398.708 105.601C402.255 105.981 402.502 105.918 403.41 104.209C404.647 101.868 406.461 101.172 411.163 101.172C414.297 101.172 415.452 101.488 417.431 103.007C418.751 104.083 419.823 105.538 419.823 106.424C419.823 107.943 419.658 107.943 411.988 108.259C400.028 108.765 393.842 111.676 392.852 117.435C391.285 126.294 407.451 131.167 417.349 124.776L419.823 123.194V125.155C419.823 127.117 419.906 127.117 423.948 127.117H428.072V115.41C428.072 102.88 427.742 101.678 423.783 98.8302C419.246 95.6029 409.431 94.4638 403.327 96.4888ZM419.823 114.587C419.823 120.662 409.678 124.902 403.822 121.358C400.605 119.397 401.265 115.979 405.142 114.397C406.874 113.701 413.142 112.815 417.596 112.626C419.576 112.562 419.823 112.752 419.823 114.587Z" fill="black"/>
<path d="M463.044 96.9318C450.424 101.615 447.455 114.967 457.187 123.257C463.291 128.446 476.241 129.205 483.829 124.839C487.128 123.004 490.345 118.954 488.86 118.574C483.251 117.118 482.427 117.245 479.21 119.65C476.488 121.801 475.663 122.054 472.117 122.054C465.683 122.054 460.239 118.574 460.239 114.461C460.239 113.258 460.652 113.195 475.168 113.195H490.18L489.603 109.208C488.943 104.146 486.221 100.096 481.932 97.7544C476.983 95.1599 468.982 94.7802 463.044 96.9318ZM475.911 101.804C478.138 102.69 480.035 104.715 480.53 106.74L481.107 108.765H470.632C464.941 108.765 460.239 108.639 460.239 108.449C460.239 107.373 462.714 103.829 464.198 102.88C467.25 100.792 472.117 100.349 475.911 101.804Z" fill="black"/>
<path d="M503.13 96.8684C495.129 100.032 493.397 106.297 499.253 110.411C501.397 111.993 503.624 112.689 508.573 113.511C517.811 115.093 519.626 115.916 519.626 118.7C519.626 122.497 510.388 124.079 505.686 121.042C504.284 120.156 503.13 118.954 503.13 118.447C503.13 117.688 502.47 117.625 499.665 117.941C494.716 118.574 494.222 119.143 496.119 121.801C499.088 126.041 505.274 128.129 513.522 127.56C522.513 127.054 527.874 123.32 527.874 117.561C527.874 112.436 524.575 110.347 513.687 108.512C506.099 107.183 503.459 105.854 504.202 103.576C504.862 101.741 507.831 100.539 511.955 100.539C514.264 100.539 515.502 101.045 517.564 102.69C520.121 104.779 520.368 104.842 523.667 104.209C527.379 103.45 527.626 103.197 525.812 100.539C523.832 97.6278 519.378 95.9192 512.697 95.6661C507.748 95.4129 506.264 95.6028 503.13 96.8684Z" fill="black"/>
<path d="M202.898 96.4257C202.898 96.6788 214.528 120.473 217.332 125.978C217.827 126.927 218.899 127.117 223.106 127.117H228.302L229.374 124.712C229.869 123.447 233.251 116.612 236.798 109.525C240.427 102.501 243.314 96.5522 243.314 96.4257C243.314 96.2358 241.334 96.1093 238.86 96.1093H234.406L229.292 106.677C223.023 119.713 223.023 119.713 222.034 117.625C221.621 116.739 219.147 111.55 216.59 106.044L211.806 96.1093H207.352C204.877 96.1093 202.898 96.2358 202.898 96.4257Z" fill="black"/>
<path d="M332.393 111.613V127.117H336.93H341.466V111.613V96.1093H336.93H332.393V111.613Z" fill="black"/>
<path d="M133.284 105.348C131.634 106.614 131.387 118.194 132.954 119.397C133.531 119.84 136.253 120.156 139.552 120.156C146.481 120.156 146.811 119.776 146.811 111.993C146.811 104.969 146.233 104.336 139.387 104.336C136.088 104.336 134.109 104.652 133.284 105.348Z" fill="black"/>
</svg>
