<svg width="104" height="28" viewBox="0 0 104 28" fill="none" xmlns="http://www.w3.org/2000/svg">
<path d="M16.4499 0.117744C16.2862 0.171465 15.5865 0.668383 14.8868 1.21902C14.1871 1.76966 12.758 2.87094 11.6862 3.66332C10.6292 4.46913 9.63177 5.27494 9.49779 5.47639C9.2596 5.78529 9.22983 6.21506 9.22983 9.08912V12.3527L8.38128 11.7214C7.39875 11.0096 6.96703 10.835 6.49065 10.9425C6.17803 11.0096 4.80844 12.0841 1.0123 15.2133L0 16.046V21.1494C0 24.9636 0.0446604 26.3201 0.193529 26.5752C0.342397 26.8573 0.506152 26.9244 1.11651 26.9513C1.68221 26.9916 1.89063 26.9379 2.03949 26.7633C2.18836 26.5752 2.23302 25.3934 2.23302 21.5926V16.6638L4.52559 14.8372L6.83305 12.9973L9.36381 14.8238L11.9095 16.6503V21.5926C11.9095 26.2126 11.9243 26.5484 12.1774 26.7498C12.4156 26.9513 12.9218 26.9781 16.1969 26.9781C19.3826 26.9781 19.9632 26.9513 20.1567 26.7633C20.3652 26.5887 20.3949 26.1186 20.3949 23.728V20.9077L22.5386 18.9469L24.6675 16.9995L26.0668 18.0068C26.8409 18.5708 27.9128 19.4035 28.4785 19.8601L29.4759 20.6928V23.5803C29.4759 25.2994 29.5354 26.5618 29.6248 26.723C29.7439 26.9244 29.9374 26.9781 30.518 26.9781C31.694 26.9781 31.7089 26.9379 31.6643 23.1908L31.6345 20.0079L31.1879 19.5915C30.9497 19.3498 30.0863 18.6514 29.2973 18.0202L27.8383 16.8786V12.3392C27.8383 8.21616 27.8086 7.77296 27.5853 7.53122C27.2429 7.19546 17.7451 0.346058 17.3134 0.144606C16.9412 -0.043417 16.8668 -0.043417 16.4499 0.117744ZM22.1069 5.91959L25.6798 8.51162L25.7244 11.896L25.7542 15.2939L25.2183 14.9984C24.8163 14.7835 24.593 14.7432 24.3548 14.8372C24.1762 14.9044 22.7471 16.14 21.1691 17.5904L18.3108 20.2362V22.6671V25.0979H16.2266H14.1425V20.666C14.1425 17.6576 14.0829 16.14 13.9787 15.9117C13.8745 15.7236 13.279 15.2133 12.6389 14.7567L11.4628 13.9374L11.4926 10.083L11.5373 6.22849L14.202 4.1871L16.8816 2.15914L17.7004 2.73663C18.1619 3.05896 20.1419 4.49599 22.1069 5.91959Z" fill="white"/>
<path d="M15.0952 8.88764C15.0655 8.98165 15.0506 9.69345 15.0655 10.4724L15.1101 11.8691H16.3011H17.492V10.3247V8.78019L16.3309 8.7399C15.4674 8.71304 15.1548 8.75333 15.0952 8.88764Z" fill="black"/>
<path d="M19.859 9.02196C19.8143 9.1294 19.8143 9.77405 19.8292 10.4724L19.8739 11.7349H21.0648H22.2558L22.3004 10.4724C22.3302 9.66661 22.2855 9.15626 22.1664 9.03539C21.9283 8.78022 19.9781 8.76679 19.859 9.02196Z" fill="black"/>
<path d="M15.3334 14.4074C15.2441 14.488 15.1845 15.0924 15.1845 15.7773C15.1845 17.1875 15.1697 17.1741 16.4499 17.1741C17.7302 17.1741 17.7153 17.1875 17.7153 15.7639C17.7153 14.9044 17.6558 14.4746 17.5218 14.3806C17.2836 14.1926 15.5418 14.2194 15.3334 14.4074Z" fill="black"/>
<path d="M51.955 10.8619V15.5624H52.6993H53.4437V10.8619V6.1613H52.6993H51.955V10.8619Z" fill="white"/>
<path d="M71.1739 6.41645C70.9952 6.57761 70.8612 6.87308 70.8612 7.10139C70.8612 7.53116 71.3078 8.0415 71.68 8.0415C72.1117 8.0415 72.6328 7.71918 72.8114 7.34313C72.9603 7.00738 72.9454 6.89994 72.6923 6.59104C72.3053 6.12098 71.5907 6.0404 71.1739 6.41645Z" fill="black"/>
<path d="M38.5569 8.88763C37.2915 9.20996 36.6216 9.86804 36.6216 10.8082C36.6216 11.7886 37.3064 12.3123 39.1077 12.6884C40.5666 12.9838 40.6261 12.9973 40.8048 13.3062C41.1769 13.9374 40.4773 14.6223 39.4203 14.6223C38.8248 14.6223 38.3336 14.3403 38.0358 13.8299C37.8274 13.4539 37.7976 13.4539 37.1426 13.5882C36.4132 13.7359 36.3387 13.8971 36.7109 14.488C37.6041 15.8445 40.3284 16.0728 41.7278 14.9044C42.2041 14.5015 42.3232 14.3 42.3828 13.7762C42.487 13.0241 42.2488 12.4332 41.7129 12.1243C41.5044 12.0034 40.7006 11.7617 39.9264 11.5871C38.3782 11.2379 38.1103 11.1036 38.1103 10.6604C38.1103 10.1769 38.5717 9.92176 39.4054 9.92176C40.0753 9.92176 40.2093 9.97548 40.5964 10.365C40.9983 10.7813 41.043 10.7947 41.6087 10.6604C41.9213 10.5664 42.2041 10.4455 42.2339 10.3784C42.2637 10.3112 42.1446 10.0695 41.9808 9.82775C41.43 8.99507 39.8371 8.56531 38.5569 8.88763Z" fill="white"/>
<path d="M46.1194 8.90103C44.8391 9.20993 43.797 10.0829 43.4695 11.1439C42.8294 13.1315 44.0799 15.1461 46.2236 15.5758C49.0372 16.1399 51.3744 13.7896 50.5556 11.211C49.9899 9.4651 48.01 8.44441 46.1194 8.90103ZM48.2928 10.4589C49.975 11.802 48.7692 14.7835 46.6702 14.4343C45.5983 14.2463 44.9582 13.427 44.9582 12.1914C44.9582 10.8484 45.7472 10.056 47.0721 10.056C47.6378 10.056 47.876 10.1366 48.2928 10.4589Z" fill="white"/>
<path d="M65.8593 8.84736C65.1 8.94137 63.9835 9.5323 63.5667 10.0426C62.5544 11.3319 62.5842 13.1853 63.6411 14.4343C65.1447 16.2071 68.4347 16.0191 69.5214 14.0851L69.8043 13.5748L69.1493 13.4271C68.3156 13.239 68.1816 13.239 68.1816 13.4539C68.1816 13.7897 67.3777 14.3403 66.7674 14.4209C65.6062 14.5821 64.6683 13.8434 64.5195 12.6481C64.3259 11.2514 64.847 10.3247 65.9635 10.0561C66.4845 9.92177 66.6632 9.94863 67.214 10.1904C67.6308 10.3784 67.9434 10.6201 68.0923 10.9156C68.3305 11.3588 68.3305 11.3588 69.0004 11.2245C69.715 11.0768 69.8341 10.8619 69.5065 10.2844C68.8962 9.20997 67.4522 8.6459 65.8593 8.84736Z" fill="white"/>
<path d="M76.816 8.84736C75.0296 9.15626 73.8386 10.4858 73.8386 12.1512C73.8386 13.1719 74.0768 13.8434 74.7021 14.4881C75.4762 15.3073 76.2354 15.6162 77.4859 15.6162C79.1086 15.6296 80.24 14.985 80.895 13.6822C81.2671 12.9436 81.2969 11.5603 80.9545 10.8485C80.2697 9.42486 78.4684 8.5519 76.816 8.84736ZM78.7959 10.459C79.6891 11.1574 79.8529 12.6347 79.1383 13.5882C78.2451 14.7969 76.4438 14.7029 75.6846 13.3868C75.4166 12.9167 75.4166 11.6543 75.6846 11.0633C76.161 10.0292 77.8432 9.7069 78.7959 10.459Z" fill="white"/>
<path d="M85.6736 8.86076C85.3461 8.92792 84.8251 9.16966 84.5273 9.39797L83.9616 9.80088V9.31739V8.8339L83.1875 8.87419L82.3985 8.91449V12.2049V15.4953L83.1875 15.5356L83.9616 15.5759V13.4808C83.9616 11.0767 84.0956 10.6201 84.9293 10.2709C85.5099 10.0158 85.8374 10.0023 86.4775 10.2038C87.2665 10.459 87.3856 10.8484 87.3856 13.3465V15.5624H88.2044H89.0232V13.0778C89.0232 10.3515 88.9487 10.0023 88.1895 9.35768C87.8471 9.07565 86.7008 8.68617 86.3435 8.72646C86.2989 8.73989 86.0011 8.79361 85.6736 8.86076Z" fill="white"/>
<path d="M93.0872 8.86077C91.2859 9.16966 90.1694 10.459 90.1843 12.2049C90.1992 13.1987 90.4523 13.8702 91.1371 14.5552C91.8814 15.3207 92.6406 15.6296 93.8763 15.6162C95.1714 15.6162 96.1093 15.1864 96.675 14.3134L97.062 13.7494L96.3772 13.5748C95.7222 13.4002 95.6924 13.4002 95.4096 13.7359C94.308 14.9984 92.194 14.5552 91.7921 12.9704L91.7028 12.6078H94.3973H97.1067L97.0323 11.6811C96.9727 11.0633 96.8387 10.5798 96.6154 10.2172C95.9455 9.1428 94.5462 8.60559 93.0872 8.86077ZM94.5313 10.1232C95.0821 10.3784 95.4245 10.8216 95.4245 11.2916V11.6677H93.5487C91.8963 11.6677 91.6879 11.6408 91.7623 11.4528C91.807 11.3319 91.8516 11.1976 91.8516 11.1305C91.8516 10.929 92.6406 10.1635 92.9533 10.0561C93.4445 9.88146 94.0549 9.90832 94.5313 10.1232Z" fill="white"/>
<path d="M100.263 8.83391C98.6996 9.18309 97.8511 10.2306 98.253 11.3319C98.4912 11.9766 99.2653 12.4198 100.62 12.6884C101.245 12.8092 101.9 12.9973 102.094 13.0913C102.57 13.3733 102.54 13.9911 102.019 14.3537C101.424 14.7701 100.278 14.676 99.7863 14.1657C99.5928 13.9642 99.4439 13.7225 99.4439 13.6285C99.4439 13.4942 99.2802 13.4808 98.6996 13.5882C97.8808 13.7359 97.8511 13.7762 98.1786 14.3537C99.0271 15.8176 101.945 16.1265 103.315 14.8909C103.97 14.3 104.148 13.6822 103.88 12.9301C103.642 12.2855 102.972 11.8691 101.856 11.6677C99.7268 11.2916 99.1462 10.8619 99.8906 10.1904C100.337 9.78745 101.573 9.81431 102.034 10.2306C102.228 10.4052 102.406 10.6201 102.436 10.7007C102.481 10.835 102.615 10.835 103.017 10.7141C103.3 10.6336 103.627 10.5395 103.731 10.5127C103.88 10.4724 103.88 10.3784 103.702 10.0695C103.359 9.47855 102.659 9.02193 101.826 8.86077C100.992 8.6996 100.903 8.6996 100.263 8.83391Z" fill="white"/>
<path d="M54.9324 11.2917C54.9324 14.4075 55.1557 14.9447 56.6146 15.4953C57.5673 15.8579 58.6392 15.6699 59.4729 14.9984L59.9939 14.5955V15.079V15.5625H60.8127H61.6314V12.2049V8.84736H60.8127H59.9939V10.9425C59.9939 13.2793 59.845 13.8031 59.0858 14.1523C58.535 14.4209 57.612 14.4075 57.1803 14.1389C56.555 13.736 56.4211 13.1853 56.4211 10.929V8.84736H55.6767H54.9324V11.2917Z" fill="white"/>
<path d="M71.1143 8.94135C71.0548 8.98164 71.0101 10.4993 71.0101 12.2989V15.5624H71.8289H72.6477V12.2049V8.84734H71.9331C71.5312 8.84734 71.159 8.88763 71.1143 8.94135Z" fill="white"/>
<path d="M59.9195 17.9127C59.4728 18.3157 59.458 18.638 59.8599 19.108C60.4405 19.7795 61.6314 19.4035 61.6314 18.5305C61.6314 18.2619 61.4975 18.0471 61.2444 17.859C60.7233 17.4964 60.3661 17.5098 59.9195 17.9127Z" fill="black"/>
<path d="M78.6024 22.3447V26.9781H79.4212H80.2399V22.3447V17.7112H79.4212H78.6024V22.3447Z" fill="white"/>
<path d="M5.9845 20.0213C5.77608 20.2093 5.73142 22.7745 5.93984 23.0565C6.01427 23.1774 6.37156 23.2177 7.16056 23.1908L8.26218 23.1505L8.30684 21.6195C8.33662 20.4779 8.29196 20.0482 8.15797 19.9676C7.86024 19.8064 6.17803 19.8467 5.9845 20.0213Z" fill="black"/>
<path d="M45.8812 20.6122C44.5711 21.2031 43.9161 22.2238 43.9161 23.6877C43.9161 25.1247 44.586 26.1857 45.8961 26.7767C47.5634 27.5153 49.6326 27.0184 50.511 25.662L50.764 25.259L50.0941 25.0576C49.4242 24.8427 49.4242 24.8427 49.1712 25.1785C48.665 25.8903 47.2954 26.132 46.432 25.6754C46.03 25.4605 45.4048 24.5472 45.4048 24.1846C45.4048 24.0638 46.1194 24.0235 48.0993 24.0235H50.8087L50.7343 23.1774C50.5705 21.3374 49.3498 20.263 47.4443 20.263C46.8935 20.263 46.4171 20.3705 45.8812 20.6122ZM48.397 21.6866C48.7394 21.8478 48.9181 22.0895 49.186 22.8416C49.2605 23.0699 49.1116 23.0834 47.3401 23.0834H45.4048L45.6281 22.573C46.1342 21.4717 47.1912 21.136 48.397 21.6866Z" fill="white"/>
<path d="M53.8158 20.5854C52.4611 21.1628 51.6721 22.2776 51.6573 23.634C51.6573 25.0307 52.3867 26.1992 53.6372 26.8035C54.3518 27.1527 56.3019 27.1393 57.0909 26.7632C57.6715 26.4946 58.7583 25.2859 58.5796 25.1113C58.5201 25.071 58.2075 24.9636 57.8651 24.8964C57.2696 24.7487 57.2249 24.7621 56.9421 25.1516C56.555 25.662 56.0638 25.9037 55.3343 25.9037C54.5006 25.9037 53.9052 25.568 53.5777 24.9233C53.2353 24.2249 53.2055 23.0834 53.5479 22.4521C54.2029 21.1897 56.2275 21.1628 56.9421 22.4119C57.21 22.8819 57.1356 22.8551 57.9693 22.667L58.6243 22.5193L58.4456 22.0358C58.2372 21.3912 57.3291 20.5854 56.6146 20.4108C55.6767 20.169 54.6346 20.2362 53.8158 20.5854Z" fill="white"/>
<path d="M65.7253 20.4913C65.4871 20.5987 65.1298 20.8271 64.9512 20.9748L64.6088 21.2434V20.8271V20.3973H63.79H62.9712V23.6877V26.9781H63.7751H64.5939L64.6385 24.6815L64.6832 22.385L65.1745 21.9955C65.5764 21.6732 65.7848 21.606 66.4101 21.606C67.0502 21.606 67.2289 21.6732 67.601 21.9955L68.0327 22.385V24.6815V26.9781H68.8515H69.6703V24.5204C69.6703 22.2372 69.6405 22.0223 69.3428 21.4717C68.7473 20.4107 66.9162 19.9138 65.7253 20.4913Z" fill="white"/>
<path d="M72.6477 20.4779C72.3648 20.5854 72.0075 20.7868 71.8587 20.9077C71.5163 21.1897 70.9506 22.1433 71.0697 22.2507C71.1143 22.291 71.4567 22.3581 71.814 22.4119C72.4542 22.4925 72.4988 22.479 72.6626 22.1164C72.8859 21.6195 73.2134 21.4718 74.0619 21.4718C74.6276 21.4718 74.836 21.5389 75.1933 21.8612C75.4315 22.0895 75.625 22.3984 75.625 22.5865C75.625 22.9088 75.5953 22.9088 74.2108 22.9759C72.0522 23.0834 70.9357 23.7012 70.7571 24.9233C70.4742 26.8035 73.392 27.8377 75.1784 26.4812L75.625 26.1455V26.5618C75.625 26.9781 75.6399 26.9781 76.3694 26.9781H77.1137V24.4936C77.1137 21.8344 77.0542 21.5792 76.3396 20.9748C75.5208 20.2899 73.7493 20.0482 72.6477 20.4779ZM75.625 24.319C75.625 25.6083 73.794 26.5081 72.737 25.756C72.1564 25.3397 72.2755 24.6144 72.9752 24.2787C73.2878 24.1309 74.4192 23.9429 75.2231 23.9026C75.5804 23.8892 75.625 23.9295 75.625 24.319Z" fill="white"/>
<path d="M83.4257 20.5719C81.148 21.5658 80.6121 24.3995 82.3688 26.1589C83.4704 27.2602 85.8076 27.4213 87.1772 26.4946C87.7727 26.1052 88.3533 25.2456 88.0853 25.1651C87.073 24.8562 86.9241 24.883 86.3435 25.3934C85.8523 25.85 85.7034 25.9037 85.0633 25.9037C83.9021 25.9037 82.9196 25.1651 82.9196 24.2921C82.9196 24.0369 82.994 24.0235 85.6141 24.0235H88.3235L88.2193 23.1774C88.1002 22.103 87.6089 21.2434 86.8348 20.7465C85.9416 20.1959 84.4976 20.1153 83.4257 20.5719ZM85.7481 21.606C86.15 21.7941 86.4924 22.2238 86.5817 22.6536L86.6859 23.0834H84.7953C83.7681 23.0834 82.9196 23.0565 82.9196 23.0162C82.9196 22.7879 83.3662 22.0358 83.6341 21.8344C84.185 21.3912 85.0633 21.2972 85.7481 21.606Z" fill="white"/>
<path d="M90.6607 20.5585C89.2167 21.23 88.9041 22.5596 89.961 23.4325C90.3481 23.7683 90.75 23.916 91.6432 24.0906C93.3106 24.4264 93.6381 24.601 93.6381 25.1919C93.6381 25.9977 91.9708 26.3335 91.1222 25.6888C90.8691 25.5008 90.6607 25.2456 90.6607 25.1382C90.6607 24.977 90.5416 24.9636 90.0355 25.0307C89.1423 25.165 89.0529 25.2859 89.3953 25.85C89.9313 26.7498 91.0478 27.193 92.5364 27.0721C94.1591 26.9647 95.1268 26.1723 95.1268 24.9501C95.1268 23.8623 94.5313 23.4191 92.5662 23.0296C91.1966 22.7476 90.7203 22.4656 90.8542 21.9821C90.9733 21.5926 91.5093 21.3374 92.2536 21.3374C92.6704 21.3374 92.8937 21.4449 93.2659 21.794C93.7274 22.2372 93.7721 22.2507 94.3675 22.1164C95.0374 21.9552 95.0821 21.9015 94.7546 21.3374C94.3973 20.7196 93.5934 20.357 92.3876 20.3033C91.4944 20.2496 91.2264 20.2899 90.6607 20.5585Z" fill="white"/>
<path d="M36.4727 20.4644C36.4727 20.5182 38.5718 25.5679 39.0779 26.7363C39.1672 26.9378 39.3608 26.9781 40.12 26.9781H41.0579L41.2514 26.4677C41.3407 26.1991 41.9511 24.7487 42.5912 23.2445C43.2462 21.7537 43.7673 20.4913 43.7673 20.4644C43.7673 20.4241 43.41 20.3973 42.9634 20.3973H42.1595L41.2365 22.6401C40.1051 25.4068 40.1051 25.4068 39.9265 24.9636C39.852 24.7755 39.4054 23.6743 38.9439 22.5058L38.0805 20.3973H37.2766C36.83 20.3973 36.4727 20.4241 36.4727 20.4644Z" fill="white"/>
<path d="M59.845 23.6877V26.9781H60.6638H61.4826V23.6877V20.3973H60.6638H59.845V23.6877Z" fill="white"/>
<path d="M23.9082 22.3581C23.6105 22.6267 23.5658 25.0845 23.8487 25.3396C23.9529 25.4336 24.4442 25.5008 25.0396 25.5008C26.2901 25.5008 26.3497 25.4202 26.3497 23.7683C26.3497 22.2775 26.2455 22.1432 25.0099 22.1432C24.4144 22.1432 24.0571 22.2104 23.9082 22.3581Z" fill="black"/>
</svg>
